<?xml version="1.0" standalone="no"?>
<!DOCTYPE svg PUBLIC "-//W3C//DTD SVG 20010904//EN"
 "http://www.w3.org/TR/2001/REC-SVG-20010904/DTD/svg10.dtd">
<svg version="1.0" xmlns="http://www.w3.org/2000/svg"
 width="380.000000pt" height="380.000000pt" viewBox="0 0 380.000000 380.000000"
 preserveAspectRatio="xMidYMid meet">
<metadata>
Created by potrace 1.14, written by Peter Selinger 2001-2017
</metadata>
<g transform="translate(0.000000,380.000000) scale(0.100000,-0.100000)"
fill="#000000" stroke="none">
<path d="M326 3143 c-7 -18 -33 -132 -42 -184 -3 -14 1 -31 8 -37 15 -12 38
-2 42 19 14 77 15 79 61 79 l43 0 -8 -34 c-4 -19 -5 -37 -2 -40 3 -4 0 -6 -7
-6 -7 0 -9 -4 -6 -10 3 -5 17 -10 30 -10 24 0 35 21 49 100 2 14 5 25 6 25 1
0 3 9 4 20 2 11 6 36 10 55 7 34 6 36 -17 35 -14 0 -28 -2 -31 -5 -4 -5 -12
-43 -15 -73 -1 -5 -20 -7 -43 -5 -40 3 -43 5 -39 28 7 49 6 55 -15 58 -13 2
-24 -4 -28 -15z"/>
<path d="M748 3148 c-8 -21 2 -38 22 -38 16 0 30 18 30 41 0 14 -47 11 -52 -3z"/>
<path d="M950 3135 c-5 -14 -9 -31 -7 -38 1 -7 -5 -10 -13 -7 -42 12 -84 3
-106 -25 -13 -16 -21 -32 -18 -37 3 -4 2 -8 -3 -8 -11 0 -9 -52 3 -71 13 -22
45 -37 69 -32 11 2 34 4 52 4 29 0 33 3 39 37 4 20 8 44 9 52 0 9 4 20 7 26 4
5 9 28 11 49 3 22 7 47 9 55 2 9 -6 16 -19 18 -17 2 -26 -3 -33 -23z m-30
-120 c0 -36 -20 -58 -47 -53 -26 5 -26 65 0 83 28 20 47 8 47 -30z"/>
<path d="M1229 3153 c-1 -14 -7 -38 -19 -83 -11 -41 -17 -72 -23 -125 -1 -15
5 -21 26 -23 15 -2 27 0 25 5 -2 11 13 96 20 107 3 5 6 21 8 35 1 14 5 41 8
59 6 29 4 32 -19 32 -14 0 -25 -3 -26 -7z"/>
<path d="M1319 3153 c0 -5 -2 -15 -4 -23 -4 -15 -10 -44 -19 -85 -2 -11 -9
-42 -16 -69 -8 -39 -8 -51 2 -57 7 -4 18 -3 25 3 9 8 21 8 36 1 47 -21 87 0
111 59 26 62 -9 124 -66 116 -20 -3 -23 1 -20 30 3 29 1 32 -22 32 -14 0 -26
-3 -27 -7z m79 -105 c18 -18 14 -56 -9 -79 -15 -15 -24 -18 -33 -10 -17 14
-15 63 3 85 16 19 23 20 39 4z"/>
<path d="M585 3090 c-11 -4 -29 -18 -40 -31 -61 -70 6 -170 89 -135 33 14 53
33 43 42 -9 9 -47 13 -47 4 0 -14 -32 -21 -46 -9 -23 19 -5 30 47 28 55 -3 57
-2 62 31 8 49 -57 91 -108 70z m47 -45 c14 -19 8 -25 -22 -25 -28 0 -30 2 -20
20 11 20 29 23 42 5z"/>
<path d="M734 3081 c-4 -9 -8 -29 -10 -46 -2 -16 -8 -43 -14 -58 -11 -34 -4
-57 20 -57 22 0 29 10 32 44 1 14 5 26 8 26 3 0 6 15 7 33 2 17 4 41 5 51 4
24 -38 30 -48 7z"/>
<path d="M1048 3083 c-66 -41 -62 -140 7 -163 18 -6 41 -7 51 -4 22 8 54 34
54 44 0 14 -39 18 -50 5 -14 -17 -45 -13 -45 6 0 10 14 14 45 15 25 1 48 2 53
3 4 1 7 16 7 34 0 64 -64 96 -122 60z m72 -47 c0 -13 -24 -18 -49 -10 -10 3
-11 7 -2 18 13 16 51 10 51 -8z"/>
<path d="M1513 3067 c-54 -47 -42 -126 22 -147 30 -10 40 -9 67 7 17 10 33 23
35 29 6 19 -34 23 -57 7 -20 -14 -24 -14 -38 1 -18 18 -19 18 57 20 40 1 45 4
52 29 6 21 2 34 -18 57 -32 38 -74 37 -120 -3z m85 -28 c2 -10 -7 -15 -28 -17
-31 -2 -38 6 -19 25 15 15 43 10 47 -8z"/>
<path d="M1702 3091 c-12 -7 -39 -112 -38 -150 2 -54 43 -32 57 30 11 46 33
79 55 79 15 0 38 37 27 43 -5 3 -17 1 -28 -3 -11 -4 -29 -4 -41 0 -11 5 -26 5
-32 1z"/>
<path d="M1853 3090 c-43 -18 -73 -99 -52 -141 11 -21 66 -42 74 -28 4 5 11 7
16 3 6 -4 3 -14 -7 -25 -15 -16 -20 -17 -33 -6 -23 20 -46 26 -60 18 -18 -12
-1 -42 32 -56 52 -22 113 3 124 50 1 6 5 21 8 35 3 14 8 36 11 50 3 14 9 41
14 60 11 40 -1 53 -37 39 -15 -6 -31 -5 -43 1 -21 11 -18 11 -47 0z m62 -67
c-3 -36 -16 -61 -35 -66 -32 -8 -43 59 -14 87 19 20 52 6 49 -21z"/>
<path d="M2040 3078 c-44 -30 -56 -83 -29 -128 10 -16 22 -30 26 -31 5 0 17
-2 27 -4 27 -5 86 21 86 38 0 22 -25 27 -49 11 -16 -12 -25 -12 -42 -3 -30 16
-9 26 46 24 51 -3 65 9 61 49 -7 60 -70 82 -126 44z m68 -30 c18 -18 15 -24
-18 -26 -41 -3 -41 31 1 37 3 1 10 -4 17 -11z"/>
<path d="M2223 3092 c-16 -2 -23 -11 -24 -25 0 -12 -2 -29 -5 -37 -12 -47 -21
-100 -16 -105 3 -3 15 -5 27 -5 19 0 24 7 29 43 4 23 7 44 7 47 1 11 33 40 44
40 7 0 18 7 25 15 19 22 -1 41 -27 26 -11 -5 -24 -7 -29 -3 -5 5 -19 6 -31 4z"/>
<path d="M1606 2806 c-7 -6 -20 -46 -30 -89 -27 -118 -29 -139 -15 -148 14 -8
50 6 47 19 -1 4 2 24 6 45 12 56 43 48 75 -19 14 -29 16 -42 8 -52 -6 -8 -11
-26 -12 -42 -2 -45 -21 -62 -94 -85 -16 -5 -21 -4 -17 4 8 12 -65 16 -77 5 -9
-9 19 -60 37 -67 9 -4 12 -14 9 -26 -3 -12 -1 -21 6 -21 6 0 16 -12 21 -26 13
-32 32 -27 45 13 6 16 16 37 24 46 7 10 11 17 7 17 -4 0 0 13 8 29 9 16 12 32
8 36 -4 5 -2 5 5 1 7 -4 19 6 30 24 16 28 19 29 30 13 11 -14 16 -14 26 -4 10
10 8 15 -5 25 -18 13 -26 72 -9 61 20 -12 21 17 2 61 -20 44 -20 46 -3 51 25
6 50 53 46 82 -5 30 -28 47 -68 50 -17 1 -46 3 -64 4 -18 2 -39 -2 -46 -7z
m118 -55 c11 -18 -18 -41 -51 -41 -13 0 -26 0 -30 0 -7 0 -8 5 -4 43 1 18 73
16 85 -2z"/>
<path d="M2155 2804 c-8 -9 -16 -22 -16 -30 -1 -8 -3 -18 -4 -24 -1 -5 -3 -13
-4 -17 0 -4 -6 -2 -13 5 -18 18 -62 14 -86 -8 -21 -19 -42 -77 -38 -102 6 -40
49 -70 81 -58 11 4 30 4 42 -1 26 -10 39 4 46 46 3 17 13 66 21 110 9 44 16
81 16 81 0 1 -7 4 -15 8 -8 3 -21 -2 -30 -10z m-47 -106 c20 -25 1 -88 -27
-88 -29 0 -40 19 -30 53 12 43 37 58 57 35z"/>
<path d="M3277 2789 c-39 -23 -66 -55 -57 -69 8 -14 6 -53 -5 -107 -7 -29 29
-55 59 -44 25 10 34 41 11 41 -12 0 -15 7 -11 28 2 15 5 35 5 45 1 9 8 17 16
17 8 0 15 5 15 12 0 8 5 7 15 -3 12 -12 13 -25 6 -64 -11 -58 -2 -75 40 -75
33 0 48 19 25 32 -16 9 -16 13 -1 88 1 8 8 14 14 12 17 -3 26 27 12 41 -6 6
-11 21 -11 34 0 31 -11 29 -53 -12 -30 -29 -37 -32 -47 -20 -7 8 -10 24 -7 35
6 22 0 24 -26 9z"/>
<path d="M1808 2687 c-7 -34 -12 -71 -13 -82 0 -27 41 -46 73 -34 15 6 29 6
34 1 13 -13 48 -3 49 14 1 8 2 17 4 22 8 31 16 78 13 83 -2 3 3 13 10 21 10
13 9 18 -4 29 -21 17 -46 1 -51 -32 -7 -49 -25 -89 -44 -100 -26 -14 -33 6
-20 62 15 65 14 74 -14 77 -22 2 -25 -4 -37 -61z"/>
<path d="M2238 2730 c-15 -11 -32 -36 -38 -55 -15 -44 8 -92 48 -101 15 -3 32
-7 38 -9 6 -2 26 9 44 23 32 25 33 26 10 34 -15 6 -28 4 -39 -5 -19 -16 -51
-11 -51 8 0 11 14 14 55 12 53 -2 55 -1 61 27 14 66 -72 111 -128 66z m72 -30
c0 -18 -5 -25 -22 -27 -19 -3 -32 12 -23 27 3 6 15 10 26 10 10 0 19 -4 19
-10z"/>
<path d="M2411 2741 c-6 -4 -13 -25 -16 -46 -3 -22 -9 -56 -15 -75 -7 -26 -7
-38 3 -47 17 -18 44 2 51 37 9 50 26 81 51 90 14 5 25 14 25 20 0 5 0 13 0 18
0 9 -84 12 -99 3z"/>
<path d="M2535 2733 c-4 -10 -9 -27 -11 -38 -5 -33 -14 -79 -19 -101 -3 -16 1
-23 16 -27 16 -4 24 2 35 28 8 19 14 43 14 53 0 22 38 65 50 57 11 -7 34 34
25 43 -3 3 -19 1 -35 -5 -17 -6 -30 -7 -30 -2 0 16 -38 9 -45 -8z"/>
<path d="M2669 2721 c-16 -16 -30 -37 -30 -45 -1 -9 -2 -22 -3 -28 -2 -13 5
-30 22 -56 5 -7 25 -17 45 -22 31 -6 40 -4 69 20 31 27 32 27 10 34 -14 5 -30
2 -44 -8 -16 -11 -25 -13 -35 -4 -25 20 -13 28 45 28 l58 0 -1 37 c-4 72 -82
98 -136 44z m81 -21 c0 -18 -5 -25 -22 -27 -19 -3 -32 12 -23 27 3 6 15 10 26
10 10 0 19 -4 19 -10z"/>
<path d="M2872 2740 c-47 -20 -66 -128 -27 -160 8 -7 28 -10 45 -8 32 5 35 1
21 -21 -8 -12 -15 -11 -50 3 -50 20 -51 20 -51 1 0 -49 97 -73 139 -33 12 10
22 23 22 28 3 20 4 25 11 35 5 9 11 44 24 138 3 21 -1 27 -14 27 -10 0 -23 -5
-30 -12 -9 -9 -15 -9 -24 0 -14 14 -34 14 -66 2z m66 -65 c4 -41 -21 -74 -44
-59 -22 13 -25 48 -6 75 20 29 46 20 50 -16z"/>
<path d="M3060 2732 c-13 -11 -20 -24 -16 -30 9 -15 43 -16 51 -2 10 15 35 12
35 -5 0 -9 -10 -15 -22 -16 -62 -2 -88 -19 -88 -57 0 -40 26 -62 61 -52 18 5
41 5 55 0 17 -7 24 -6 26 3 2 19 4 30 12 57 16 60 14 90 -7 105 -29 20 -80 19
-107 -3z m58 -99 c-2 -10 -13 -18 -26 -19 -26 -1 -29 11 -4 25 25 15 34 13 30
-6z"/>
<path d="M3460 2728 c-11 -11 -18 -23 -15 -29 8 -13 39 -11 52 2 7 7 19 9 29
5 25 -10 6 -23 -41 -29 -56 -8 -82 -51 -52 -89 15 -19 65 -29 70 -14 3 8 8 8
18 0 23 -19 53 -1 55 32 1 16 4 48 7 72 4 36 1 46 -17 57 -29 19 -81 16 -106
-7z m63 -85 c11 -10 -13 -33 -34 -33 -24 0 -25 16 -1 29 20 12 27 13 35 4z"/>
<path d="M1439 2523 c-7 -66 0 -84 25 -64 16 14 8 71 -10 71 -8 0 -14 -3 -15
-7z"/>
<path d="M904 2486 c-24 -18 -3 -29 41 -20 33 6 49 23 23 25 -7 0 -21 2 -30 4
-9 2 -25 -3 -34 -9z"/>
<path d="M992 2488 c3 -8 21 -13 44 -14 27 0 39 -5 39 -15 1 -8 7 -24 14 -37
9 -17 10 -27 1 -37 -6 -8 -7 -16 -2 -19 5 -3 7 -17 4 -31 -5 -28 15 -58 34
-51 7 3 14 -4 16 -17 l3 -22 12 21 c10 18 9 25 -7 44 -11 13 -21 26 -21 29 -4
19 -9 58 -9 69 1 86 1 87 -69 90 -48 2 -62 0 -59 -10z"/>
<path d="M1750 2449 c0 -5 8 -24 17 -42 9 -18 18 -36 18 -42 4 -25 6 -31 19
-47 12 -17 15 -17 45 -2 38 19 70 12 51 -11 -16 -19 -6 -32 24 -32 14 0 32 -8
41 -16 18 -19 62 -7 56 15 -2 7 -5 33 -5 58 -2 36 2 47 18 56 30 18 67 -2 57
-30 -5 -11 -7 -29 -6 -38 2 -10 -1 -20 -6 -24 -15 -9 -10 -64 7 -71 22 -8 42
13 26 29 -17 17 -15 38 4 38 12 0 15 6 9 23 -3 12 -6 28 -6 35 2 32 2 38 -2
57 -3 16 -12 20 -45 21 -59 1 -92 -32 -92 -93 l0 -47 -31 30 c-37 35 -50 58
-54 92 -1 14 -10 31 -19 38 -21 15 -126 17 -126 3z"/>
<path d="M893 2415 c5 -40 11 -50 26 -41 16 10 6 71 -13 74 -14 3 -16 -3 -13
-33z"/>
<path d="M953 2405 c-1 -25 3 -46 8 -46 28 -5 34 -1 36 25 2 34 -12 66 -31 66
-8 0 -13 -15 -13 -45z"/>
<path d="M1402 2443 c-6 -2 -9 -9 -6 -15 3 -5 -2 -8 -12 -7 -11 2 -24 0 -30
-3 -15 -10 -5 -68 12 -75 16 -6 46 15 39 27 -2 4 4 17 15 30 10 12 16 28 13
36 -5 15 -10 16 -31 7z"/>
<path d="M1700 2404 c-9 -10 -10 -18 -2 -26 12 -12 32 -2 32 17 0 21 -16 26
-30 9z"/>
<path d="M2558 2410 c-15 -4 -30 -5 -33 -2 -3 4 -3 -2 1 -12 4 -11 14 -16 25
-13 21 6 46 -18 30 -28 -7 -4 -7 -16 2 -38 16 -41 11 -67 -14 -67 -10 0 -19
-4 -19 -9 0 -15 18 -23 25 -11 8 13 25 3 25 -14 0 -7 -11 -25 -25 -38 -19 -20
-22 -27 -11 -31 7 -3 19 0 25 6 9 9 12 2 11 -28 -2 -76 4 -110 20 -110 12 0
15 13 14 60 -2 91 -12 243 -16 252 -18 35 15 55 33 21 14 -24 26 -195 18 -245
-9 -57 22 -111 68 -119 15 -3 35 -11 43 -19 11 -10 20 -11 33 -4 13 7 22 6 33
-6 15 -15 18 -15 36 2 19 17 19 18 1 31 -10 7 -26 11 -35 8 -10 -2 -21 0 -24
5 -3 5 -22 9 -43 8 -43 -3 -62 6 -55 25 3 7 -2 18 -10 25 -11 9 -13 18 -7 30
5 9 10 18 12 21 1 3 -3 15 -9 26 -6 12 -8 25 -4 29 8 8 10 55 2 55 -3 0 -6 12
-6 28 -5 82 -8 99 -21 120 -7 12 -18 20 -22 17 -5 -2 -20 4 -34 15 -27 22 -29
22 -69 10z"/>
<path d="M1451 2401 c-9 -6 -10 -14 -4 -26 9 -16 11 -16 26 0 26 25 8 45 -22
26z"/>
<path d="M2445 2391 c-3 -5 -1 -12 5 -16 12 -7 30 2 30 16 0 12 -27 12 -35 0z"/>
<path d="M2236 2371 c-3 -5 4 -21 15 -35 12 -15 19 -30 16 -33 -4 -3 0 -18 9
-34 13 -26 17 -27 39 -17 30 13 37 8 39 -29 2 -15 7 -37 12 -48 6 -11 9 -50 8
-88 -1 -65 7 -90 22 -66 9 15 12 109 4 114 -4 2 -6 14 -4 27 1 13 3 29 3 37 1
7 7 11 15 8 8 -3 17 1 20 9 5 13 -5 18 -29 15 -5 -1 -2 5 7 12 11 9 16 28 16
60 0 25 3 51 7 57 5 8 -1 11 -16 8 -20 -2 -24 -9 -25 -43 -1 -22 -3 -44 -3
-49 -1 -5 -8 -3 -16 4 -8 7 -21 10 -29 7 -17 -7 -36 11 -36 34 0 10 -12 27
-26 38 -29 23 -40 26 -48 12z"/>
<path d="M2163 2361 c-7 -5 -10 -26 -3 -33 1 -2 3 -11 5 -21 2 -12 -1 -17 -10
-13 -17 6 -36 -16 -27 -31 5 -8 13 -9 22 -3 8 6 26 10 39 10 21 0 23 3 18 30
-4 18 -2 30 4 30 6 0 9 8 7 18 -3 17 -38 25 -55 13z"/>
<path d="M899 2347 c-1 -7 0 -18 1 -26 1 -10 -6 -12 -27 -8 -16 3 -34 3 -39
-1 -17 -11 -11 -63 9 -74 16 -8 18 -7 15 13 -3 22 0 24 59 24 61 0 78 6 78 28
1 19 -17 26 -37 16 -22 -12 -39 -4 -32 15 3 7 -2 16 -10 19 -9 4 -17 1 -17 -6z"/>
<path d="M2467 2349 c-7 -5 -13 -18 -11 -31 1 -13 3 -30 3 -39 1 -20 31 -33
44 -20 7 7 6 15 -3 26 -10 12 -10 21 -1 41 6 14 11 26 11 28 0 6 -29 2 -43 -5z"/>
<path d="M1323 2330 c-7 -10 -9 -27 -6 -39 4 -14 -2 -28 -16 -40 -28 -25 -27
-33 6 -29 20 2 33 13 45 38 22 46 22 67 0 79 -14 7 -21 5 -29 -9z"/>
<path d="M1653 2334 c-8 -21 13 -42 28 -27 13 13 5 43 -11 43 -6 0 -13 -7 -17
-16z"/>
<path d="M1735 2340 c-7 -12 2 -30 16 -30 5 0 9 9 9 20 0 21 -15 27 -25 10z"/>
<path d="M2557 2324 c-4 -4 -7 -14 -7 -23 0 -11 3 -12 11 -4 6 6 10 16 7 23
-2 6 -7 8 -11 4z"/>
<path d="M1410 2310 c0 -5 6 -10 14 -10 8 0 18 5 21 10 3 6 -3 10 -14 10 -12
0 -21 -4 -21 -10z"/>
<path d="M964 2236 c-17 -44 19 -73 38 -31 10 22 9 28 -3 36 -20 12 -29 11
-35 -5z"/>
<path d="M1060 2229 c-14 -25 -6 -49 14 -49 25 0 39 36 20 54 -20 20 -21 20
-34 -5z"/>
<path d="M902 2228 c-16 -16 -15 -55 2 -61 20 -8 26 2 26 40 0 35 -8 41 -28
21z"/>
<path d="M1139 2207 c-5 -37 24 -72 59 -72 30 1 46 20 49 60 1 28 -2 35 -16
35 -21 0 -33 -22 -25 -45 12 -30 -24 -15 -36 15 -18 43 -27 45 -31 7z"/>
<path d="M827 2215 c-8 -8 -12 -25 -10 -39 4 -18 0 -28 -11 -32 -12 -5 -14
-10 -6 -19 6 -7 8 -27 5 -44 -3 -18 -3 -37 1 -42 8 -13 34 9 34 29 0 8 7 24
17 34 15 17 15 19 -1 37 -15 16 -15 19 -1 24 19 8 20 53 0 61 -8 3 -21 -1 -28
-9z"/>
<path d="M2474 2218 c-18 -8 -21 -17 -19 -57 2 -25 8 -46 14 -45 31 3 32 5 26
34 -4 19 -2 37 6 46 17 20 -1 34 -27 22z"/>
<path d="M1388 2192 c-14 -3 -17 -11 -13 -45 2 -23 4 -45 4 -49 2 -18 22 -6
31 17 26 69 21 87 -22 77z"/>
<path d="M1471 2191 c-9 -6 -11 -15 -6 -27 4 -11 7 -29 6 -41 -2 -17 3 -23 17
-23 17 0 19 6 16 35 -1 19 2 37 8 41 7 4 5 9 -3 15 -17 11 -21 11 -38 0z"/>
<path d="M1583 2189 c-25 -9 -30 -24 -13 -34 8 -5 8 -11 0 -20 -7 -9 -6 -16 4
-25 21 -17 35 -5 31 28 -1 15 1 29 6 32 17 11 -6 27 -28 19z"/>
<path d="M1663 2186 c-15 -8 -18 -16 -13 -31 4 -11 5 -24 3 -28 -3 -5 3 -7 13
-5 11 2 18 10 16 17 -2 8 4 21 13 31 13 14 13 19 2 23 -7 3 -22 0 -34 -7z"/>
<path d="M1261 2156 c-18 -21 -9 -51 14 -51 15 0 19 6 17 25 -4 33 -16 44 -31
26z"/>
<path d="M1758 2139 c-34 -8 -93 -53 -93 -72 0 -5 -7 -14 -16 -20 -18 -14 -32
-47 -19 -47 5 0 15 -7 24 -15 12 -12 13 -22 5 -42 -13 -34 -4 -41 21 -18 11
10 20 14 20 8 0 -5 -9 -18 -20 -28 -11 -10 -20 -24 -20 -32 0 -7 -4 -13 -10
-13 -19 0 -10 -39 10 -45 15 -5 19 -13 16 -31 -3 -13 1 -30 8 -36 7 -7 10 -23
8 -36 -5 -23 -2 -24 32 -20 33 4 39 1 52 -25 18 -35 13 -43 -15 -25 -18 11
-24 9 -51 -17 -16 -16 -30 -34 -30 -41 0 -6 -10 -15 -22 -18 -13 -3 -38 -19
-57 -35 -35 -28 -35 -29 -18 -55 15 -21 21 -24 37 -16 27 15 32 12 21 -9 -15
-27 12 -50 33 -28 11 10 12 17 4 25 -17 17 -1 27 16 12 18 -14 89 -8 110 9 8
7 12 19 9 27 -6 17 18 19 35 2 15 -15 15 -28 1 -28 -6 0 -30 -16 -52 -36 -33
-27 -48 -34 -69 -30 -18 4 -33 0 -44 -11 -9 -10 -23 -18 -30 -19 -8 -1 -21 -9
-30 -18 -8 -9 -24 -16 -34 -16 -11 0 -23 -8 -29 -17 -8 -15 -12 -16 -22 -5
-20 18 -39 15 -65 -13 -26 -28 -44 -32 -44 -9 0 8 -5 12 -10 9 -8 -5 -7 -11 1
-21 9 -11 9 -17 -1 -29 -16 -19 -30 -19 -30 -1 0 16 -27 29 -35 16 -7 -11 5
-40 17 -40 5 0 6 -5 3 -11 -5 -6 -13 -3 -22 10 -8 12 -23 21 -34 21 -10 0 -19
4 -19 9 0 5 -9 11 -21 14 -12 3 -18 10 -14 16 3 6 16 9 28 6 12 -3 39 1 60 10
20 8 39 15 42 15 3 0 6 0 8 1 1 0 15 2 30 4 16 2 44 13 64 25 28 16 38 18 44
9 6 -10 11 -10 23 0 20 17 12 31 -13 24 -16 -4 -19 -1 -14 16 3 12 14 26 25
32 15 8 17 13 7 25 -16 19 -28 18 -54 -8 -40 -39 -50 -45 -70 -38 -13 5 -30 1
-47 -11 -14 -11 -36 -19 -47 -19 -12 0 -21 -5 -21 -11 0 -6 -11 -8 -28 -5 -17
4 -35 1 -47 -8 -11 -9 -26 -16 -34 -16 -8 0 -22 -7 -31 -15 -12 -11 -24 -13
-41 -7 -17 7 -31 5 -47 -6 -12 -8 -33 -15 -45 -16 -15 -1 -21 -7 -19 -18 2
-14 -1 -15 -27 -5 -25 9 -33 8 -48 -6 -40 -38 -76 -67 -83 -67 -12 0 -63 -80
-56 -87 4 -4 19 -2 34 3 19 8 36 7 57 -2 17 -7 38 -8 50 -4 12 5 31 2 49 -7
15 -8 48 -16 71 -18 24 -2 54 -9 66 -15 12 -7 34 -10 49 -7 16 4 35 0 46 -7
10 -8 24 -12 30 -9 7 2 15 0 19 -6 3 -6 24 -11 46 -11 21 0 48 -6 59 -12 16
-10 24 -10 40 0 17 10 25 9 50 -10 33 -24 38 -43 15 -52 -19 -7 -19 -20 -1
-38 7 -8 17 -24 20 -36 5 -15 18 -25 38 -29 l30 -6 -23 -13 c-20 -10 -27 -10
-40 2 -13 12 -18 11 -37 -2 -17 -12 -30 -13 -57 -5 -21 6 -37 6 -41 0 -3 -5
-19 -9 -35 -9 -26 0 -29 3 -24 20 8 26 -9 26 -27 -1 -17 -27 -49 -19 -68 16
-7 13 -25 29 -41 35 -24 10 -32 9 -61 -11 -32 -23 -43 -34 -52 -54 -3 -5 -13
0 -23 12 l-18 22 -47 -29 c-27 -17 -48 -35 -48 -40 0 -17 66 -37 128 -39 12
-1 22 -5 22 -10 0 -14 -30 -18 -67 -10 -18 4 -33 4 -33 0 0 -3 -28 -5 -62 -3
-93 4 -278 3 -498 -3 -107 -3 -212 -5 -232 -5 -28 0 -38 -4 -43 -20 -3 -11
-11 -20 -16 -20 -16 0 0 -43 23 -62 19 -17 117 -18 1744 -18 l1723 0 14 21
c10 13 12 30 8 47 -6 22 -13 27 -42 28 -19 0 -45 3 -59 6 -14 3 -34 3 -45 -1
-21 -8 -85 7 -85 20 0 12 38 21 59 14 11 -3 22 -2 25 3 3 6 21 5 43 -3 20 -7
43 -11 50 -8 19 7 16 33 -4 39 -10 3 -30 11 -44 18 -17 9 -32 10 -43 4 -11 -6
-25 -4 -45 8 -23 14 -35 15 -53 7 -18 -8 -32 -4 -73 17 -34 19 -56 25 -70 20
-13 -5 -26 -2 -38 8 -15 13 -24 14 -47 5 -23 -9 -32 -8 -41 3 -6 8 -16 14 -21
14 -6 0 -23 9 -39 21 -16 11 -29 16 -29 11 0 -18 -33 -23 -55 -8 -23 15 -41
16 -62 3 -6 -4 -34 6 -63 23 -42 25 -54 28 -69 18 -15 -9 -24 -8 -46 6 -17 11
-36 15 -51 12 -20 -5 -24 -3 -24 15 0 20 -1 21 -24 5 -24 -15 -26 -14 -57 22
-46 53 -57 57 -77 31 -14 -17 -23 -20 -43 -13 -13 4 -40 8 -59 9 -35 0 -35 0
-35 45 0 28 -7 57 -18 74 -17 25 -17 30 -4 44 14 14 14 19 -4 53 -10 21 -19
45 -19 54 0 8 -9 15 -20 15 -19 0 -20 1 -5 24 15 23 15 26 0 43 -51 58 -62 78
-55 104 6 19 3 29 -11 37 -11 7 -19 17 -19 22 0 14 -66 80 -80 80 -5 0 -10 4
-10 10 0 5 -10 15 -22 21 -18 9 -24 8 -34 -6 -12 -16 -15 -15 -48 10 -40 31
-44 42 -18 53 24 10 25 29 2 42 -15 8 -21 6 -30 -7 -17 -29 -4 46 15 85 9 18
14 39 11 47 -3 8 -1 17 4 20 5 3 6 15 3 28 -3 12 -6 41 -7 64 -1 31 -8 49 -33
75 -51 53 -63 60 -87 54 -13 -3 -40 3 -64 14 -23 11 -42 20 -44 19 -2 -1 -20
-5 -40 -10z m-16 -271 c-7 -7 -12 -8 -12 -2 0 6 3 14 7 17 3 4 9 5 12 2 2 -3
-1 -11 -7 -17z m244 -235 c-10 -10 -19 5 -10 18 6 11 8 11 12 0 2 -7 1 -15 -2
-18z m-236 -33 c0 -5 -5 -10 -11 -10 -5 0 -7 5 -4 10 3 6 8 10 11 10 2 0 4 -4
4 -10z m191 -3 c-1 -12 -15 -9 -19 4 -3 6 1 10 8 8 6 -3 11 -8 11 -12z m-41
-41 c0 -3 -4 -8 -10 -11 -5 -3 -10 -1 -10 4 0 6 5 11 10 11 6 0 10 -2 10 -4z
m-92 -31 c-3 -3 -9 2 -12 12 -6 14 -5 15 5 6 7 -7 10 -15 7 -18z m-558 -264
c0 -14 -41 -41 -52 -35 -4 3 -8 0 -8 -5 0 -6 -4 -11 -10 -11 -20 0 -9 19 23
38 37 23 47 26 47 13z m283 -65 c7 4 4 -1 -5 -11 -16 -18 -19 -18 -36 -2 -10
9 -24 17 -30 17 -7 0 -12 4 -12 9 0 6 16 3 35 -5 20 -8 41 -12 48 -8z m87 -27
c0 -11 -3 -11 -24 -3 -23 9 -20 23 4 17 11 -3 20 -9 20 -14z m-470 -9 c0 -5
-6 -10 -14 -10 -8 0 -18 5 -21 10 -3 6 3 10 14 10 12 0 21 -4 21 -10z m80 -6
c0 -8 -4 -12 -10 -9 -5 3 -10 10 -10 16 0 5 5 9 10 9 6 0 10 -7 10 -16z m520
4 c47 0 122 -20 112 -30 -6 -6 -22 -4 -44 5 -24 10 -40 12 -52 5 -12 -7 -28
-5 -52 7 -38 18 -46 31 -11 20 12 -4 33 -7 47 -7z m-300 -22 c48 -9 60 -18 60
-45 -1 -22 -2 -24 -13 -10 -11 14 -72 29 -134 33 -13 1 -28 7 -35 14 -9 9 -4
12 24 12 20 0 40 5 43 10 5 7 11 8 19 1 6 -5 23 -12 36 -15z m-160 -8 c0 -13
-32 -6 -37 9 -3 7 3 9 16 6 12 -3 21 -10 21 -15z m670 -7 c0 -17 -15 -19 -35
-5 -18 13 -18 14 8 14 15 0 27 -4 27 -9z m95 -13 c21 -9 31 -9 46 0 14 9 25
10 39 2 11 -6 50 -12 87 -14 37 -2 69 -9 71 -15 2 -6 9 -11 17 -11 7 0 18 -6
24 -14 10 -12 8 -16 -10 -21 -15 -5 -26 -2 -34 9 -7 9 -21 16 -32 16 -10 0
-25 6 -31 12 -10 10 -17 10 -33 0 -17 -11 -25 -10 -55 8 -19 12 -34 17 -34 12
0 -19 -33 -22 -57 -6 -14 9 -34 14 -44 11 -19 -5 -25 3 -12 16 10 10 29 8 58
-5z m-200 -69 c15 -28 15 -29 -9 -29 -27 0 -37 18 -29 49 6 25 18 19 38 -20z
m390 -61 c22 0 45 -4 50 -8 6 -4 19 -10 30 -12 11 -2 21 -9 21 -16 1 -6 2 -15
3 -19 0 -3 10 2 20 11 17 16 22 16 54 2 20 -8 44 -12 54 -10 10 3 27 -2 38
-11 17 -14 17 -16 3 -11 -10 3 -18 2 -18 -2 0 -12 -83 -57 -95 -53 -23 9 -61
6 -79 -6 -11 -7 -26 -9 -35 -4 -9 5 -25 6 -36 4 -11 -3 -49 -6 -84 -8 -61 -4
-63 -4 -47 14 10 11 18 33 18 50 1 31 11 40 23 21 8 -13 27 -2 22 13 -2 7 -9
13 -15 13 -22 3 -23 4 -12 25 8 14 17 18 28 13 9 -3 35 -6 57 -6z m-367 -77
c17 -7 32 -17 32 -22 0 -13 44 -11 57 2 8 8 17 8 31 0 10 -6 23 -7 27 -3 5 4
5 1 1 -6 -4 -7 -15 -12 -24 -11 -22 3 -62 -10 -62 -20 0 -14 46 -30 61 -20 19
12 69 11 69 -1 0 -6 -11 -8 -24 -6 -13 2 -33 -2 -44 -10 -13 -9 -23 -11 -27
-4 -3 5 -15 10 -26 10 -13 0 -19 7 -19 24 0 28 -15 35 -50 26 -37 -9 -38 -39
-1 -53 17 -6 31 -17 31 -24 0 -10 -6 -9 -26 3 -20 14 -32 15 -60 6 -41 -12
-77 -5 -70 15 3 7 -3 22 -13 32 -19 19 -19 19 5 25 16 4 24 14 24 27 0 15 5
19 18 15 9 -3 24 -1 32 4 8 5 17 8 20 7 3 -2 20 -9 38 -16z m202 -25 c0 -2 -7
-7 -16 -10 -8 -3 -12 -2 -9 4 6 10 25 14 25 6z m727 -7 c18 5 37 5 47 -1 10
-6 26 -8 36 -5 11 3 21 0 22 -5 2 -6 17 -10 33 -10 17 0 36 -5 42 -10 7 -6 31
-10 54 -10 43 1 68 -9 107 -43 22 -19 24 -19 36 -2 16 21 30 22 47 0 12 -15
12 -16 -2 -11 -9 4 -26 0 -37 -8 -17 -12 -25 -12 -40 -3 -14 9 -27 9 -50 1
-23 -8 -35 -7 -49 3 -15 11 -23 11 -50 0 -20 -9 -33 -10 -33 -4 0 6 -4 8 -9 4
-5 -3 -12 -1 -16 4 -4 7 -15 7 -31 0 -17 -6 -39 -6 -60 0 -19 5 -34 7 -34 4 0
-3 -8 5 -18 17 -20 25 -42 20 -42 -8 0 -17 -39 -26 -41 -10 -1 4 -2 12 -3 17
-2 13 -16 26 -28 26 -27 0 -17 26 12 32 17 3 34 12 37 19 4 10 10 11 23 4 10
-5 30 -6 47 -1z m-1143 -21 c-7 -11 -34 -10 -34 1 0 6 9 9 19 8 11 0 17 -5 15
-9z m-484 -8 c0 -5 -9 -14 -20 -20 -17 -9 -20 -8 -20 10 0 13 7 20 20 20 11 0
20 -4 20 -10z m1430 0 c0 -5 -4 -10 -10 -10 -5 0 -10 5 -10 10 0 6 5 10 10 10
6 0 10 -4 10 -10z m-1570 -40 c0 -5 -4 -10 -10 -10 -5 0 -10 5 -10 10 0 6 5
10 10 10 6 0 10 -4 10 -10z m700 -16 c0 -2 -11 -4 -25 -4 -14 0 -25 4 -25 9 0
4 11 6 25 3 14 -2 25 -6 25 -8z m730 6 c8 -5 11 -12 8 -16 -10 -9 -38 3 -38
16 0 12 10 13 30 0z m101 -18 c-7 -2 -19 -1 -29 3 -14 5 -14 7 -2 15 9 5 20 4
28 -3 10 -8 11 -12 3 -15z m89 13 c10 -13 9 -15 -9 -15 -12 0 -21 6 -21 15 0
8 4 15 9 15 5 0 14 -7 21 -15z m-1133 -6 c7 -7 22 -9 40 -3 44 12 93 11 82 -2
-5 -6 -20 -9 -34 -6 -14 2 -32 -1 -39 -8 -11 -8 -20 -8 -34 -1 -15 8 -29 7
-55 -4 -22 -9 -44 -11 -63 -6 -27 7 -25 8 21 13 27 3 51 11 53 17 5 14 15 14
29 0z m853 1 c0 -5 -4 -10 -9 -10 -6 0 -13 5 -16 10 -3 6 1 10 9 10 9 0 16 -4
16 -10z m-990 -31 c0 -9 -31 -21 -37 -15 -3 3 -3 9 1 14 6 10 36 12 36 1z
m2025 -39 c3 -5 -1 -10 -10 -10 -9 0 -13 5 -10 10 3 6 8 10 10 10 2 0 7 -4 10
-10z"/>
<path d="M2255 940 c-7 -11 2 -30 15 -30 4 0 10 6 13 14 6 16 -19 30 -28 16z"/>
<path d="M2216 881 c-4 -7 -5 -15 -2 -18 9 -9 19 4 14 18 -4 11 -6 11 -12 0z"/>
<path d="M2307 884 c-11 -11 3 -24 18 -18 8 4 12 10 9 15 -6 11 -18 12 -27 3z"/>
<path d="M2395 880 c4 -6 11 -8 16 -5 14 9 11 15 -7 15 -8 0 -12 -5 -9 -10z"/>
<path d="M1830 885 c0 -8 4 -15 9 -15 5 0 11 7 15 15 3 9 0 15 -9 15 -8 0 -15
-7 -15 -15z"/>
<path d="M2875 791 c-3 -5 -1 -12 5 -16 5 -3 10 1 10 9 0 18 -6 21 -15 7z"/>
<path d="M2967 794 c-8 -8 1 -24 14 -24 5 0 9 7 9 15 0 15 -12 20 -23 9z"/>
<path d="M3055 791 c-3 -5 -1 -12 5 -16 12 -7 30 2 30 16 0 12 -27 12 -35 0z"/>
<path d="M1024 2128 c-3 -5 -4 -11 -3 -13 5 -4 71 -8 84 -4 6 1 15 3 20 3 6 1
11 5 13 10 3 12 -107 16 -114 4z"/>
<path d="M2563 2092 c-8 -5 -9 -13 -3 -22 7 -12 10 -12 16 3 8 21 3 29 -13 19z"/>
<path d="M1479 2044 c-10 -13 -10 -20 0 -36 9 -15 9 -23 0 -34 -9 -11 -9 -17
1 -29 19 -22 38 -2 32 35 -2 17 2 37 9 46 10 13 10 17 -2 25 -19 12 -25 11
-40 -7z"/>
<path d="M1562 2039 c-9 -15 -8 -20 6 -28 15 -9 15 -12 2 -21 -13 -9 -13 -11
0 -19 20 -13 32 -3 28 24 -1 12 3 30 11 39 15 18 15 18 -15 21 -12 1 -26 -6
-32 -16z"/>
<path d="M1395 2042 c-14 -10 -15 -115 -1 -124 18 -12 36 11 27 35 -5 12 -4
33 1 46 10 27 -9 56 -27 43z"/>
<path d="M2560 2010 c0 -5 4 -10 9 -10 6 0 13 5 16 10 3 6 -1 10 -9 10 -9 0
-16 -4 -16 -10z"/>
<path d="M800 2000 c0 -5 7 -10 15 -10 8 0 15 5 15 10 0 6 -7 10 -15 10 -8 0
-15 -4 -15 -10z"/>
<path d="M2659 2009 c-6 -32 -5 -39 6 -39 21 0 26 16 10 30 -8 7 -15 11 -16 9z"/>
<path d="M2371 1981 c-6 -10 -8 -21 -5 -24 3 -3 -3 -3 -15 0 -23 6 -89 -36
-73 -46 6 -4 28 -5 49 -3 86 7 141 -1 156 -23 9 -11 16 -14 21 -7 10 17 -5 42
-25 42 -11 0 -22 7 -25 15 -4 10 -13 13 -26 9 -13 -4 -18 -2 -14 4 8 14 -2 39
-20 46 -7 3 -18 -3 -23 -13z"/>
<path d="M2606 1975 c4 -9 11 -14 16 -13 15 5 11 23 -6 26 -11 2 -14 -2 -10
-13z"/>
<path d="M2246 1952 c-3 -6 -1 -14 5 -17 15 -10 25 3 12 16 -7 7 -13 7 -17 1z"/>
<path d="M2566 1944 c-4 -10 -1 -14 6 -12 15 5 23 28 10 28 -5 0 -13 -7 -16
-16z"/>
<path d="M2907 1954 c-9 -9 5 -44 18 -44 8 0 11 8 8 20 -6 22 -17 33 -26 24z"/>
<path d="M795 1930 c-3 -5 -1 -10 4 -10 6 0 11 5 11 10 0 6 -2 10 -4 10 -3 0
-8 -4 -11 -10z"/>
<path d="M2605 1930 c-7 -11 5 -40 16 -40 5 0 9 2 9 4 0 2 3 11 6 19 6 16 -22
32 -31 17z"/>
<path d="M2195 1910 c3 -5 8 -10 11 -10 2 0 4 5 4 10 0 6 -5 10 -11 10 -5 0
-7 -4 -4 -10z"/>
<path d="M2520 1879 c0 -11 5 -17 10 -14 6 3 10 13 10 21 0 8 -4 14 -10 14 -5
0 -10 -9 -10 -21z"/>
<path d="M2975 1854 c-13 -10 -21 -11 -26 -3 -4 7 -9 7 -13 1 -3 -5 2 -18 12
-29 15 -18 20 -18 50 -6 37 15 40 23 14 39 -14 9 -22 8 -37 -2z"/>
<path d="M746 1811 c-10 -15 5 -41 23 -41 23 0 41 19 34 36 -6 16 -49 19 -57
5z"/>
<path d="M665 1785 c-27 -23 -29 -26 -13 -41 15 -15 17 -15 37 5 20 20 29 61
14 61 -5 -1 -21 -12 -38 -25z"/>
<path d="M3035 1800 c4 -6 11 -8 16 -5 14 9 11 15 -7 15 -8 0 -12 -5 -9 -10z"/>
<path d="M1167 1784 c-8 -8 1 -24 14 -24 5 0 9 7 9 15 0 15 -12 20 -23 9z"/>
<path d="M886 1754 c-16 -15 -15 -18 14 -36 25 -14 29 -22 21 -32 -12 -14 -5
-46 10 -46 5 0 9 9 9 20 0 11 7 20 15 20 20 0 35 31 24 51 -6 11 -16 15 -30
12 -14 -4 -26 0 -34 11 -12 16 -14 16 -29 0z"/>
<path d="M1105 1760 c-8 -13 3 -30 20 -30 11 0 25 20 25 36 0 9 -39 4 -45 -6z"/>
<path d="M809 1755 c-6 -22 -2 -33 19 -52 12 -13 27 -23 32 -23 16 0 20 18 7
32 -7 7 -16 21 -20 31 -6 15 -35 25 -38 12z"/>
<path d="M1215 1750 c-11 -18 5 -31 26 -20 11 6 17 15 14 21 -8 12 -32 12 -40
-1z"/>
<path d="M680 1720 c-13 -9 -13 -11 -1 -19 19 -12 41 -3 34 15 -6 16 -13 17
-33 4z"/>
<path d="M1267 1704 c-11 -11 5 -34 25 -34 14 0 18 5 14 16 -3 9 -6 18 -6 20
0 6 -26 5 -33 -2z"/>
<path d="M2040 1691 c0 -14 28 -33 40 -26 20 12 10 35 -15 35 -14 0 -25 -4
-25 -9z"/>
<path d="M627 1673 c-11 -11 -8 -21 10 -27 17 -7 36 12 27 26 -6 10 -28 10
-37 1z"/>
<path d="M592 1638 c-7 -7 -12 -16 -12 -20 0 -12 28 -10 36 3 10 17 -10 31
-24 17z"/>
<path d="M1300 1614 c0 -8 5 -12 10 -9 6 4 8 11 5 16 -9 14 -15 11 -15 -7z"/>
<path d="M530 1605 c0 -8 5 -15 10 -15 6 0 10 7 10 15 0 8 -4 15 -10 15 -5 0
-10 -7 -10 -15z"/>
<path d="M1305 1580 c-4 -6 -3 -16 3 -22 6 -6 12 -6 17 2 4 6 3 16 -3 22 -6 6
-12 6 -17 -2z"/>
<path d="M1387 1583 c-3 -5 -2 -15 3 -22 10 -17 43 -6 38 12 -6 15 -34 22 -41
10z"/>
<path d="M1471 1581 c-12 -8 -12 -12 -2 -25 15 -18 26 -14 41 15 9 15 7 19 -7
19 -10 0 -24 -4 -32 -9z"/>
<path d="M1346 1544 c-9 -22 -8 -24 9 -24 8 0 15 6 15 14 0 22 -17 28 -24 10z"/>
<path d="M1533 1543 c-8 -20 17 -35 34 -21 19 15 16 25 -8 31 -13 3 -22 0 -26
-10z"/>
<path d="M510 1540 c0 -5 5 -10 10 -10 6 0 10 5 10 10 0 6 -4 10 -10 10 -5 0
-10 -4 -10 -10z"/>
<path d="M1584 1416 c-15 -12 -16 -16 -5 -29 10 -13 17 -14 37 -5 29 13 30 24
5 37 -13 7 -24 6 -37 -3z"/>
<path d="M827 1227 c-10 -26 8 -39 27 -18 15 17 15 19 1 25 -22 8 -22 8 -28
-7z"/>
<path d="M783 1174 c-3 -8 -1 -20 6 -27 8 -8 15 -6 25 8 8 11 12 23 10 27 -9
14 -34 9 -41 -8z"/>
<path d="M1387 927 c-3 -9 -14 -13 -30 -10 -31 6 -44 -14 -24 -35 15 -14 20
-13 63 9 26 13 46 29 46 34 -2 16 -49 18 -55 2z"/>
<path d="M1257 898 c-11 -9 -16 -20 -11 -31 12 -32 69 -15 62 19 -4 23 -28 29
-51 12z"/>
<path d="M1070 880 c0 -5 5 -10 10 -10 6 0 10 5 10 10 0 6 -4 10 -10 10 -5 0
-10 -4 -10 -10z"/>
<path d="M970 872 c0 -5 7 -13 16 -16 10 -4 14 -1 12 6 -5 15 -28 23 -28 10z"/>
<path d="M930 850 c-14 -26 0 -46 24 -37 20 8 21 31 2 46 -12 10 -17 8 -26 -9z"/>
<path d="M840 840 c-10 -6 -11 -13 -5 -19 6 -6 16 -7 25 -1 10 6 11 13 5 19
-6 6 -16 7 -25 1z"/>
<path d="M402 803 c-16 -6 3 -33 23 -33 19 0 26 27 9 34 -9 3 -16 6 -17 5 -1
0 -8 -3 -15 -6z"/>
<path d="M493 803 c-24 -9 -13 -23 18 -23 20 0 29 4 27 13 -5 13 -26 18 -45
10z"/>
<path d="M585 800 c-9 -15 4 -30 25 -30 24 0 36 20 19 31 -19 12 -36 11 -44
-1z"/>
<path d="M688 803 c-22 -5 -23 -19 -2 -31 19 -10 54 -4 54 9 0 13 -33 26 -52
22z"/>
<path d="M775 794 c-16 -12 -17 -16 -6 -23 14 -9 60 -5 71 5 5 6 -29 34 -39
34 -3 0 -15 -7 -26 -16z"/>
<path d="M216 792 c-3 -3 -6 -9 -6 -14 0 -11 37 -10 44 1 6 10 -30 22 -38 13z"/>
<path d="M302 788 c5 -15 37 -18 41 -3 1 6 -9 12 -22 13 -16 3 -22 -1 -19 -10z"/>
<path d="M867 786 c-4 -9 3 -16 17 -18 29 -6 46 1 46 18 0 19 -56 19 -63 0z"/>
</g>
</svg>
